<?xml version="1.0" encoding="utf-8"?>
<!-- Generator: Adobe Illustrator 16.0.0, SVG Export Plug-In . SVG Version: 6.00 Build 0)  -->
<!DOCTYPE svg PUBLIC "-//W3C//DTD SVG 1.1 Tiny//EN" "http://www.w3.org/Graphics/SVG/1.1/DTD/svg11-tiny.dtd">
<svg version="1.1" baseProfile="tiny" id="Layer_1" xmlns="http://www.w3.org/2000/svg" xmlns:xlink="http://www.w3.org/1999/xlink"
	 x="0px" y="0px" width="250.062px" height="187.057px" viewBox="0 0 250.062 187.057" xml:space="preserve">
<g>
	<path fill="none" stroke="#DDD3D4" stroke-width="2" stroke-miterlimit="10" d="M87.413,43.73c3.876,0,7.147,1.351,9.814,4.052
		c0.298,0.298,0.447,0.5,0.447,0.605c0,0.228-0.105,0.342-0.315,0.342c-0.088,0-0.21-0.087-0.369-0.263
		c-1.087-1.21-2.464-2.184-4.131-2.921c-1.736-0.771-3.552-1.158-5.446-1.158c-2.403,0-4.648,0.597-6.736,1.79
		c-2.035,1.193-3.648,2.815-4.841,4.867c-1.175,2.052-1.763,4.271-1.763,6.657c0,3.982,1.474,7.306,4.42,9.972
		c2.543,2.28,5.49,3.42,8.84,3.42c1.807,0,3.613-0.39,5.42-1.171c1.806-0.78,3.236-1.776,4.289-2.986
		c0.105-0.14,0.21-0.21,0.316-0.21c0.21,0,0.315,0.114,0.315,0.342c0,0.281-0.491,0.798-1.473,1.552
		c-0.982,0.754-1.938,1.342-2.868,1.763c-1.964,0.912-3.991,1.368-6.078,1.368c-2.368,0-4.64-0.623-6.815-1.868
		c-2.175-1.263-3.885-2.973-5.13-5.13c-1.263-2.192-1.895-4.534-1.895-7.025c0-4.122,1.535-7.586,4.604-10.393
		C80.599,44.985,83.73,43.783,87.413,43.73z"/>
	<path fill="none" stroke="#DDD3D4" stroke-width="2" stroke-miterlimit="10" d="M122.381,68.331c-2.701,2.28-5.745,3.42-9.13,3.42
		c-2.526,0-4.876-0.623-7.051-1.868c-2.158-1.245-3.868-2.955-5.131-5.13c-1.246-2.175-1.868-4.508-1.868-6.999
		c0-2.508,0.623-4.85,1.868-7.025c1.263-2.158,2.973-3.868,5.131-5.131c2.157-1.245,4.49-1.868,6.999-1.868
		c2.508,0,4.841,0.623,6.999,1.868c2.175,1.263,3.894,2.973,5.157,5.131c1.245,2.175,1.868,4.499,1.868,6.972
		c0,3.912-1.395,7.262-4.184,10.051v2.973c0,0.263-0.114,0.395-0.342,0.395c-0.21,0-0.316-0.131-0.316-0.395V68.331z
		 M123.039,66.805c2.351-2.543,3.525-5.569,3.525-9.078c0-2.385-0.596-4.604-1.789-6.657c-1.193-2.069-2.825-3.701-4.894-4.894
		c-2.07-1.193-4.298-1.79-6.683-1.79c-3.964,0-7.271,1.474-9.919,4.42c-2.28,2.543-3.42,5.525-3.42,8.946
		c0,2.386,0.596,4.604,1.789,6.657c1.193,2.07,2.824,3.701,4.894,4.894s4.297,1.789,6.683,1.789c3.403,0,6.367-1.131,8.893-3.394
		c0.105-0.087,0.193-0.167,0.263-0.237v-9.551c0-0.28,0.105-0.421,0.316-0.421c0.228,0,0.342,0.141,0.342,0.421V66.805z"/>
	<path fill="none" stroke="#DDD3D4" stroke-width="2" stroke-miterlimit="10" d="M137.773,54.544h-0.105h-0.211
		c-0.228,0-0.342-0.105-0.342-0.316c0-0.228,0.166-0.342,0.5-0.342c1.527,0,2.99,0.404,4.395,1.21
		c1.176,0.684,2.141,1.57,2.895,2.657c1.053,1.544,1.578,3.246,1.578,5.104c0,1.386-0.316,2.706-0.947,3.96
		c-0.631,1.254-1.5,2.302-2.605,3.144c-1.596,1.193-3.385,1.789-5.367,1.789c-1.525,0-2.947-0.359-4.262-1.079
		c-1.334-0.737-2.443-1.802-3.329-3.197s-1.329-2.767-1.329-4.118c0-0.246,0.105-0.369,0.316-0.369s0.324,0.158,0.342,0.474
		c0.053,1.158,0.412,2.325,1.079,3.5c0.771,1.298,1.793,2.312,3.065,3.039c1.271,0.728,2.679,1.092,4.223,1.092
		c2.369,0,4.377-0.912,6.025-2.736c1.422-1.579,2.131-3.42,2.131-5.525c0-1.474-0.367-2.85-1.104-4.131
		c-0.738-1.28-1.746-2.298-3.027-3.052C140.396,54.913,139.09,54.544,137.773,54.544z M137.326,44.388
		c-2.018,0-3.71,0.754-5.078,2.263c-1.158,1.281-1.736,2.789-1.736,4.526c0,1.859,0.662,3.46,1.986,4.802s2.89,2.013,4.696,2.013
		c0.228,0,0.342,0.105,0.342,0.316s-0.149,0.315-0.447,0.315c-1.192,0-2.351-0.324-3.473-0.973
		c-0.966-0.543-1.755-1.263-2.368-2.158c-0.93-1.28-1.395-2.719-1.395-4.315c0-2.052,0.732-3.806,2.197-5.262
		c1.464-1.456,3.223-2.184,5.275-2.184c1.332,0,2.574,0.338,3.723,1.013s2.066,1.592,2.75,2.75c0.613,1.07,0.922,2.026,0.922,2.868
		c0,0.193-0.098,0.29-0.291,0.29c-0.227,0-0.359-0.167-0.395-0.5c-0.07-0.737-0.332-1.5-0.789-2.289
		C141.914,45.598,139.939,44.441,137.326,44.388z"/>
	<path fill="none" stroke="#DDD3D4" stroke-width="2" stroke-miterlimit="10" d="M173.135,68.331c-2.701,2.28-5.744,3.42-9.129,3.42
		c-2.527,0-4.877-0.623-7.053-1.868c-2.156-1.245-3.867-2.955-5.131-5.13c-1.244-2.175-1.867-4.508-1.867-6.999
		c0-2.508,0.623-4.85,1.867-7.025c1.264-2.158,2.975-3.868,5.131-5.131c2.158-1.245,4.49-1.868,7-1.868
		c2.508,0,4.842,0.623,6.998,1.868c2.176,1.263,3.895,2.973,5.158,5.131c1.244,2.175,1.867,4.499,1.867,6.972
		c0,3.912-1.395,7.262-4.184,10.051v2.973c0,0.263-0.113,0.395-0.342,0.395c-0.211,0-0.316-0.131-0.316-0.395V68.331z
		 M173.793,66.805c2.35-2.543,3.525-5.569,3.525-9.078c0-2.385-0.596-4.604-1.789-6.657c-1.193-2.069-2.824-3.701-4.893-4.894
		c-2.07-1.193-4.299-1.79-6.684-1.79c-3.965,0-7.271,1.474-9.92,4.42c-2.281,2.543-3.42,5.525-3.42,8.946
		c0,2.386,0.596,4.604,1.789,6.657c1.191,2.07,2.824,3.701,4.895,4.894c2.068,1.193,4.297,1.789,6.682,1.789
		c3.402,0,6.367-1.131,8.895-3.394c0.104-0.087,0.191-0.167,0.262-0.237v-9.551c0-0.28,0.105-0.421,0.316-0.421
		c0.229,0,0.342,0.141,0.342,0.421V66.805z"/>
	<path fill="none" stroke="#DDD3D4" stroke-width="2" stroke-miterlimit="10" d="M22.175,111.813c2.684-2.28,5.727-3.42,9.13-3.42
		c2.526,0,4.876,0.622,7.051,1.868c2.158,1.263,3.868,2.973,5.131,5.13c1.245,2.176,1.868,4.509,1.868,6.999
		c0,2.509-0.623,4.851-1.868,7.025c-1.263,2.157-2.973,3.867-5.131,5.131c-2.157,1.245-4.49,1.868-6.999,1.868
		c-2.509,0-4.841-0.623-6.999-1.868c-2.175-1.264-3.894-2.974-5.157-5.131c-1.246-2.175-1.868-4.499-1.868-6.973
		c0-3.911,1.395-7.262,4.184-10.051v-12.13c0-0.263,0.105-0.395,0.315-0.395c0.228,0,0.342,0.132,0.342,0.395V111.813z
		 M21.517,113.34c-2.351,2.543-3.526,5.569-3.526,9.077c0,2.368,0.596,4.587,1.789,6.657c1.193,2.069,2.824,3.701,4.894,4.894
		c2.069,1.193,4.297,1.789,6.683,1.789c2.385,0,4.604-0.596,6.657-1.789c2.069-1.192,3.701-2.824,4.894-4.894
		c1.192-2.053,1.789-4.28,1.789-6.684c0-2.385-0.597-4.604-1.789-6.656c-1.193-2.07-2.825-3.701-4.894-4.895
		c-2.07-1.192-4.298-1.789-6.683-1.789c-3.368,0-6.333,1.132-8.893,3.395c-0.105,0.088-0.193,0.167-0.263,0.236v9.577
		c0,0.264-0.114,0.396-0.342,0.396c-0.21,0-0.315-0.132-0.315-0.396V113.34z"/>
	<path fill="none" stroke="#DDD3D4" stroke-width="2" stroke-miterlimit="10" d="M72.192,132.994
		c-2.701,2.28-5.745,3.421-9.13,3.421c-2.526,0-4.876-0.623-7.051-1.868c-2.158-1.245-3.868-2.956-5.131-5.131
		c-1.246-2.175-1.868-4.508-1.868-6.999c0-2.508,0.623-4.85,1.868-7.025c1.263-2.157,2.973-3.867,5.131-5.13
		c2.157-1.246,4.49-1.868,6.999-1.868c2.508,0,4.841,0.622,6.999,1.868c2.175,1.263,3.894,2.973,5.157,5.13
		c1.246,2.176,1.868,4.5,1.868,6.973c0,3.912-1.395,7.262-4.184,10.051v2.974c0,0.263-0.114,0.395-0.342,0.395
		c-0.21,0-0.316-0.132-0.316-0.395V132.994z M72.85,131.468c2.351-2.543,3.526-5.568,3.526-9.077c0-2.385-0.597-4.604-1.789-6.656
		c-1.193-2.07-2.825-3.701-4.894-4.895c-2.07-1.192-4.298-1.789-6.683-1.789c-3.964,0-7.271,1.474-9.919,4.421
		c-2.28,2.543-3.42,5.525-3.42,8.945c0,2.386,0.596,4.604,1.789,6.657c1.193,2.069,2.824,3.701,4.894,4.894
		c2.07,1.193,4.297,1.789,6.683,1.789c3.403,0,6.367-1.131,8.893-3.395c0.105-0.087,0.193-0.166,0.263-0.236v-9.551
		c0-0.28,0.105-0.421,0.316-0.421c0.228,0,0.342,0.141,0.342,0.421V131.468z"/>
	<path fill="none" stroke="#DDD3D4" stroke-width="2" stroke-miterlimit="10" d="M79.902,118.523
		c0.561-2.754,1.798-4.981,3.71-6.684c0.807-0.719,1.789-1.359,2.947-1.921c1.158-0.561,2.069-0.842,2.736-0.842
		c0.175,0,0.263,0.097,0.263,0.289c0,0.211-0.176,0.343-0.526,0.396c-1.877,0.351-3.583,1.241-5.118,2.67
		c-1.535,1.43-2.609,3.136-3.223,5.118c-0.456,1.473-0.684,3.543-0.684,6.209v11.63c0,0.263-0.105,0.395-0.315,0.395
		c-0.229,0-0.342-0.132-0.342-0.395v-25.97c0-0.263,0.114-0.395,0.342-0.395c0.21,0,0.315,0.132,0.315,0.395v7.025L79.902,118.523z"
		/>
	<path fill="none" stroke="#DDD3D4" stroke-width="2" stroke-miterlimit="10" d="M104.792,108.393c3.876,0,7.147,1.351,9.814,4.052
		c0.298,0.298,0.447,0.5,0.447,0.604c0,0.229-0.105,0.343-0.315,0.343c-0.088,0-0.21-0.088-0.369-0.264
		c-1.087-1.21-2.464-2.184-4.131-2.92c-1.736-0.772-3.552-1.158-5.446-1.158c-2.403,0-4.648,0.597-6.736,1.789
		c-2.035,1.193-3.648,2.815-4.841,4.868c-1.175,2.052-1.763,4.271-1.763,6.656c0,3.982,1.474,7.306,4.42,9.972
		c2.543,2.281,5.49,3.421,8.84,3.421c1.807,0,3.613-0.39,5.42-1.171c1.806-0.78,3.236-1.776,4.289-2.986
		c0.105-0.14,0.21-0.21,0.316-0.21c0.21,0,0.315,0.114,0.315,0.342c0,0.28-0.491,0.798-1.473,1.552
		c-0.982,0.755-1.938,1.343-2.868,1.764c-1.964,0.911-3.991,1.368-6.078,1.368c-2.368,0-4.64-0.623-6.815-1.868
		c-2.175-1.264-3.885-2.974-5.13-5.131c-1.263-2.192-1.895-4.534-1.895-7.025c0-4.122,1.535-7.586,4.604-10.393
		C97.977,109.647,101.108,108.445,104.792,108.393z"/>
	<path fill="none" stroke="#DDD3D4" stroke-width="2" stroke-miterlimit="10" d="M143.285,121.943
		c-0.07-1.807-0.455-3.481-1.158-5.025c-1.016-2.245-2.533-4.069-4.551-5.473c-2.281-1.596-4.824-2.395-7.631-2.395
		c-2.385,0-4.613,0.597-6.683,1.789c-2.052,1.193-3.675,2.824-4.868,4.895c-1.21,2.069-1.815,4.288-1.815,6.656
		c0,2.351,0.605,4.569,1.815,6.657c1.21,2.087,2.85,3.728,4.92,4.92c2.052,1.193,4.253,1.789,6.604,1.789
		c1.543,0,3.108-0.289,4.696-0.868c1.587-0.579,2.934-1.359,4.038-2.342c0.176-0.158,0.307-0.236,0.395-0.236
		c0.211,0,0.316,0.104,0.316,0.315c0,0.176-0.395,0.544-1.184,1.104c-2.457,1.79-5.21,2.685-8.262,2.685
		c-2.474,0-4.798-0.623-6.973-1.868c-2.157-1.245-3.868-2.956-5.13-5.131c-1.263-2.192-1.895-4.534-1.895-7.025
		c0-2.49,0.623-4.823,1.868-6.999c1.263-2.157,2.973-3.867,5.13-5.13c2.158-1.246,4.5-1.868,7.025-1.868
		c2.701,0,5.192,0.724,7.473,2.17c2.279,1.447,4,3.399,5.156,5.854c0.896,1.859,1.344,3.728,1.344,5.604
		c0,0.386-0.221,0.579-0.658,0.579h-22.128c-0.263,0-0.395-0.114-0.395-0.343c0-0.21,0.131-0.315,0.395-0.315H143.285z"/>
	<path fill="none" stroke="#DDD3D4" stroke-width="2" stroke-miterlimit="10" d="M145.996,135.388v-35.126
		c0-0.263,0.113-0.395,0.342-0.395c0.209,0,0.314,0.132,0.314,0.395v35.126c0,0.263-0.105,0.395-0.314,0.395
		C146.109,135.783,145.996,135.651,145.996,135.388z"/>
	<path fill="none" stroke="#DDD3D4" stroke-width="2" stroke-miterlimit="10" d="M165.15,109.024c-3.262,0-6.166,1.149-8.709,3.447
		c-1.367,1.228-2.438,2.675-3.209,4.341c-0.773,1.667-1.176,3.386-1.211,5.157c-0.018,0.299-0.131,0.447-0.342,0.447
		s-0.316-0.105-0.316-0.315c0-1.526,0.299-3.079,0.895-4.657c0.824-2.122,2.07-3.938,3.736-5.446
		c2.666-2.403,5.789-3.604,9.367-3.604c2.912,0,5.561,0.824,7.945,2.473c2.387,1.649,4.105,3.842,5.158,6.578
		c0.596,1.578,0.895,3.131,0.895,4.657c0,0.21-0.105,0.315-0.316,0.315s-0.324-0.148-0.342-0.447
		c-0.035-2.263-0.623-4.35-1.764-6.262c-1.262-2.105-2.895-3.736-4.893-4.895C169.992,109.621,167.693,109.024,165.15,109.024z
		 M180.543,122.39c0.211,0,0.316,0.114,0.316,0.342c0,0.72-0.09,1.535-0.264,2.447c-0.299,1.491-0.834,2.903-1.605,4.236
		c-1.264,2.157-2.973,3.867-5.131,5.131c-2.156,1.245-4.49,1.868-6.998,1.868c-2.754,0-5.285-0.746-7.592-2.237
		c-2.307-1.49-4.029-3.481-5.17-5.973c-0.824-1.823-1.236-3.647-1.236-5.473c0-0.228,0.105-0.342,0.316-0.342
		c0.209,0,0.324,0.141,0.342,0.421c0.018,1.877,0.473,3.71,1.367,5.499c0.965,1.982,2.342,3.614,4.131,4.895
		c2.316,1.701,5,2.552,8.053,2.552c2.508,0,4.857-0.719,7.051-2.157c2.191-1.438,3.824-3.333,4.895-5.684
		c0.754-1.648,1.148-3.35,1.184-5.104C180.201,122.549,180.314,122.408,180.543,122.39z"/>
	<path fill="none" stroke="#DDD3D4" stroke-width="2" stroke-miterlimit="10" d="M183.541,114.97l0.027-0.079l0.053-0.184
		c0.279-0.877,0.561-1.562,0.842-2.053c0.771-1.298,1.85-2.332,3.236-3.104c1.385-0.771,2.867-1.157,4.447-1.157
		c1.525,0,2.951,0.372,4.275,1.118c1.324,0.745,2.389,1.775,3.195,3.091c0.562,0.878,0.947,1.847,1.158,2.908
		s0.316,2.53,0.316,4.407v15.471c0,0.263-0.105,0.395-0.316,0.395c-0.229,0-0.342-0.132-0.342-0.395v-14.655
		c0-1.982-0.057-3.43-0.17-4.342c-0.115-0.912-0.338-1.754-0.672-2.525c-0.648-1.456-1.654-2.622-3.012-3.5
		c-1.361-0.877-2.848-1.315-4.461-1.315c-1.736,0-3.307,0.474-4.709,1.421c-1.404,0.947-2.412,2.21-3.025,3.789
		c-0.299,0.807-0.496,1.614-0.594,2.421c-0.096,0.807-0.145,2.148-0.145,4.025v14.682c0,0.263-0.105,0.395-0.314,0.395
		c-0.229,0-0.342-0.132-0.342-0.395v-25.97c0-0.263,0.113-0.395,0.342-0.395c0.209,0,0.314,0.132,0.314,0.395v3.474L183.541,114.97z
		"/>
	<path fill="none" stroke="#DDD3D4" stroke-width="2" stroke-miterlimit="10" d="M229.219,132.994
		c-2.701,2.28-5.746,3.421-9.131,3.421c-2.525,0-4.877-0.623-7.051-1.868c-2.158-1.245-3.867-2.956-5.131-5.131
		c-1.246-2.175-1.867-4.508-1.867-6.999c0-2.508,0.621-4.85,1.867-7.025c1.264-2.157,2.973-3.867,5.131-5.13
		c2.158-1.246,4.49-1.868,6.998-1.868s4.842,0.622,7,1.868c2.174,1.263,3.893,2.973,5.156,5.13c1.246,2.176,1.869,4.5,1.869,6.973
		c0,3.912-1.395,7.262-4.184,10.051v2.974c0,0.263-0.115,0.395-0.344,0.395c-0.209,0-0.314-0.132-0.314-0.395V132.994z
		 M229.877,131.468c2.35-2.543,3.525-5.568,3.525-9.077c0-2.385-0.598-4.604-1.789-6.656c-1.193-2.07-2.824-3.701-4.895-4.895
		c-2.07-1.192-4.297-1.789-6.684-1.789c-3.963,0-7.27,1.474-9.918,4.421c-2.281,2.543-3.422,5.525-3.422,8.945
		c0,2.386,0.598,4.604,1.789,6.657c1.193,2.069,2.824,3.701,4.895,4.894c2.07,1.193,4.297,1.789,6.684,1.789
		c3.402,0,6.367-1.131,8.893-3.395c0.105-0.087,0.193-0.166,0.264-0.236v-9.551c0-0.28,0.105-0.421,0.314-0.421
		c0.229,0,0.344,0.141,0.344,0.421V131.468z"/>
</g>
<line fill="none" x1="250.754" y1="163.886" x2="67.531" y2="163.886"/>
<line fill="none" stroke="#000000" stroke-width="3" stroke-miterlimit="10" x1="250.754" y1="163.886" x2="0" y2="163.886"/>
<line fill="none" stroke="#000000" stroke-width="3" stroke-miterlimit="10" x1="250.754" y1="171.886" x2="0" y2="171.886"/>
</svg>
